<svg width="50" height="57" viewBox="0 0 50 57" fill="none" xmlns="http://www.w3.org/2000/svg">
<g filter="url(#filter0_d_389_496)">
<path d="M25.016 4C22.3871 3.99858 19.7836 4.52392 17.3545 5.54597C14.9255 6.56802 12.7184 8.06676 10.8594 9.95648C9.00049 11.8462 7.52617 14.0898 6.52077 16.5591C5.51537 19.0285 4.9986 21.675 5 24.3475C4.99984 28.6522 6.34341 32.846 8.83728 36.325C11.3312 39.8041 14.8467 42.3889 18.8778 43.7075C20.0342 44.1037 21.0722 44.7929 21.894 45.7099C22.7158 46.627 23.2943 47.7417 23.5749 48.949L23.8524 50.0342C23.9045 50.3062 24.0479 50.5513 24.2583 50.7275C24.4686 50.9037 24.7327 51.0001 25.0053 51C25.2761 50.9976 25.5377 50.9001 25.7458 50.7241C25.954 50.5481 26.0959 50.3044 26.1476 50.0342L26.4251 48.949C26.7057 47.7417 27.2842 46.627 28.106 45.7099C28.9278 44.7929 29.9658 44.1037 31.1222 43.7075C35.1533 42.3889 38.6688 39.8041 41.1627 36.325C43.6566 32.846 45.0002 28.6522 45 24.3475C45 18.9566 42.8956 13.7861 39.1488 9.97115C35.402 6.15619 30.319 4.00863 25.016 4Z" fill="#E4C51E"/>
</g>
<g clip-path="url(#clip0_389_496)">
<path d="M30.0502 33.1583H31.4335C32.1335 33.1583 32.7085 32.6249 32.7918 31.9416L34.1668 18.2083H30.0002V14.8333H28.3585V18.2083H24.2168L24.4668 20.1583C25.8918 20.5499 27.2252 21.2583 28.0252 22.0416C29.2252 23.2249 30.0502 24.4499 30.0502 26.4499V33.1583ZM15.8335 32.3249V31.4999H28.3585V32.3249C28.3585 32.7833 27.9835 33.1583 27.5168 33.1583H16.6752C16.2085 33.1583 15.8335 32.7833 15.8335 32.3249ZM28.3585 26.4916C28.3585 19.8249 15.8335 19.8249 15.8335 26.4916H28.3585ZM15.8502 28.1666H28.3502V29.8333H15.8502V28.1666Z" fill="white"/>
</g>
<defs>
<filter id="filter0_d_389_496" x="0" y="0" width="50" height="57" filterUnits="userSpaceOnUse" color-interpolation-filters="sRGB">
<feFlood flood-opacity="0" result="BackgroundImageFix"/>
<feColorMatrix in="SourceAlpha" type="matrix" values="0 0 0 0 0 0 0 0 0 0 0 0 0 0 0 0 0 0 127 0" result="hardAlpha"/>
<feOffset dy="1"/>
<feGaussianBlur stdDeviation="2.5"/>
<feComposite in2="hardAlpha" operator="out"/>
<feColorMatrix type="matrix" values="0 0 0 0 0 0 0 0 0 0 0 0 0 0 0 0 0 0 0.1 0"/>
<feBlend mode="normal" in2="BackgroundImageFix" result="effect1_dropShadow_389_496"/>
<feBlend mode="normal" in="SourceGraphic" in2="effect1_dropShadow_389_496" result="shape"/>
</filter>
<clipPath id="clip0_389_496">
<rect width="20" height="20" fill="white" transform="translate(15 14)"/>
</clipPath>
</defs>
</svg>
