<svg width="50" height="50" viewBox="0 0 50 50" fill="none" xmlns="http://www.w3.org/2000/svg">
<rect width="50" height="50" rx="8" fill="#E4C51E"/>
<path d="M31.4817 36.2051H33.28C34.19 36.2051 34.9375 35.5298 35.0458 34.6647L36.8333 17.2781H31.4167V13.0052H29.2825V17.2781H23.8983L24.2233 19.7468C26.0758 20.2427 27.8092 21.1394 28.8492 22.1311C30.4092 23.6293 31.4817 25.1801 31.4817 27.7122V36.2051ZM13 35.15V34.1056H29.2825V35.15C29.2825 35.7303 28.795 36.2051 28.1883 36.2051H14.0942C13.4875 36.2051 13 35.7303 13 35.15ZM29.2825 27.7649C29.2825 19.3248 13 19.3248 13 27.7649H29.2825ZM13.0217 29.8855H29.2717V31.9955H13.0217V29.8855Z" fill="white"/>
</svg>
